<?xml version="1.0" standalone="no"?>
<!DOCTYPE svg PUBLIC "-//W3C//DTD SVG 20010904//EN"
 "http://www.w3.org/TR/2001/REC-SVG-20010904/DTD/svg10.dtd">
<svg version="1.0" xmlns="http://www.w3.org/2000/svg"
 width="280.000000pt" height="150.000000pt" viewBox="0 0 280.000000 150.000000"
 preserveAspectRatio="xMidYMid meet">

<g transform="translate(0.000000,150.000000) scale(0.100000,-0.100000)"
fill="#000000" stroke="none">
<path d="M817 1452 c-30 -32 -47 -90 -45 -149 1 -35 3 -44 5 -23 9 93 16 121
38 154 27 39 27 46 2 18z"/>
<path d="M1141 1444 c13 -17 26 -30 28 -27 3 2 -8 16 -24 31 l-28 27 24 -31z"/>
<path d="M842 1395 c-24 -30 -37 -97 -24 -120 6 -12 9 -5 10 26 2 53 10 79 30
102 8 9 12 17 9 17 -3 0 -15 -11 -25 -25z"/>
<path d="M1112 1394 c10 -10 20 -16 22 -13 3 3 -5 11 -17 18 -21 13 -21 12 -5
-5z"/>
<path d="M944 1380 c-33 -13 -54 -50 -54 -94 0 -31 7 -45 34 -70 20 -19 35
-45 38 -64 2 -18 3 -32 1 -32 -2 0 -29 20 -61 45 -31 25 -64 45 -73 45 -8 0
-20 5 -25 10 -6 6 -24 13 -40 16 -16 3 -47 10 -69 16 -53 15 -227 14 -290 -1
-119 -29 -239 -101 -272 -164 -8 -18 -32 -48 -53 -67 -49 -46 -84 -138 -76
-198 13 -97 67 -173 140 -194 40 -12 146 -75 146 -87 0 -3 -11 -24 -25 -46
-46 -75 -78 -148 -83 -191 -4 -40 -1 -47 32 -80 34 -34 40 -36 86 -32 60 6 67
-6 30 -49 -28 -31 -48 -102 -35 -123 4 -6 105 -10 291 -10 l284 0 0 35 c0 44
-22 100 -45 113 -31 17 -12 37 33 34 112 -9 155 88 93 208 -15 30 -41 79 -57
108 l-29 53 30 25 c17 13 39 24 50 24 32 0 82 36 109 77 32 48 48 129 37 187
-8 43 -51 129 -71 141 -6 3 -10 43 -10 88 0 81 0 82 34 109 97 77 14 214 -100
168z m-246 -165 c70 -17 164 -61 210 -100 74 -62 109 -204 78 -322 -20 -80
-56 -135 -114 -173 -234 -155 -629 -91 -726 119 -17 38 -21 65 -21 151 1 94 3
110 27 156 61 116 201 182 393 183 50 0 118 -6 153 -14z m-616 -304 c-4 -70
11 -153 37 -205 24 -45 12 -46 -27 -2 -35 40 -57 121 -47 173 6 32 31 93 38
93 1 0 0 -27 -1 -59z m972 -111 c-6 -49 -34 -109 -58 -129 -21 -18 -20 -12 9
50 14 30 27 84 31 124 7 65 8 67 16 35 4 -19 5 -55 2 -80z m-204 -263 c0 -8
18 -42 41 -77 22 -34 39 -63 37 -64 -2 -1 -27 -7 -56 -12 l-52 -11 -11 39 c-5
22 -7 48 -3 60 4 15 2 19 -7 16 -20 -7 -22 -60 -5 -103 20 -47 20 -125 2 -170
-13 -31 -19 -35 -53 -35 -21 0 -62 -11 -91 -25 -30 -14 -56 -25 -58 -25 -2 0
-4 12 -4 28 0 21 7 30 30 40 17 8 30 20 30 28 0 16 -16 19 -25 4 -9 -14 -68
-13 -83 2 -9 9 -15 9 -23 1 -8 -8 -3 -16 20 -27 25 -14 31 -23 31 -50 l0 -33
-56 29 c-34 16 -73 28 -96 28 -35 0 -40 3 -54 35 -18 45 -18 123 2 170 18 43
15 96 -5 103 -10 3 -12 -2 -9 -23 3 -15 2 -42 -3 -60 l-9 -32 -52 11 c-29 5
-54 11 -56 12 -2 1 12 26 31 55 18 30 37 62 40 73 5 12 13 16 25 11 109 -42
338 -47 442 -8 68 25 80 27 80 10z m-550 -176 c23 -6 26 -13 30 -71 4 -40 2
-68 -5 -72 -21 -15 -65 -7 -92 16 -24 21 -28 31 -26 70 1 25 4 50 8 56 7 11
46 12 85 1z m650 -17 c17 -44 11 -74 -19 -105 -29 -28 -73 -38 -96 -21 -7 4
-9 32 -5 72 4 58 7 65 30 71 54 15 80 10 90 -17z m-469 -199 c54 -19 89 -51
89 -82 0 -23 -1 -23 -130 -23 -83 0 -130 4 -130 10 0 24 30 79 51 94 29 20 64
20 120 1z m313 4 c22 -10 56 -71 56 -99 0 -6 -52 -10 -130 -10 -130 0 -130 0
-130 23 0 29 22 50 80 76 51 23 88 26 124 10z"/>
<path d="M325 1064 c-47 -12 -77 -28 -94 -53 -43 -60 -35 -134 20 -187 l30
-29 265 -3 c224 -2 269 -1 297 13 96 47 101 185 7 240 -32 18 -54 20 -270 22
-129 1 -244 -1 -255 -3z m498 -28 c45 -19 68 -48 74 -94 7 -49 -16 -96 -57
-117 -42 -22 -517 -22 -559 0 -81 41 -73 173 12 210 46 20 484 21 530 1z"/>
<path d="M420 975 c0 -8 -4 -15 -10 -15 -5 0 -10 5 -10 11 0 8 -5 8 -15 -1
-18 -15 -20 -74 -2 -87 26 -21 57 -21 82 -1 33 25 32 61 -1 87 -32 25 -44 26
-44 6z"/>
<path d="M690 975 c0 -18 -17 -20 -22 -3 -3 7 -12 1 -23 -16 -17 -26 -17 -31
-4 -55 20 -36 80 -42 103 -9 22 31 20 45 -9 73 -27 28 -45 32 -45 10z"/>
<path d="M352 697 c2 -6 31 -25 63 -42 69 -35 177 -46 242 -25 51 17 115 58
108 70 -3 5 -29 -5 -57 -23 -44 -27 -62 -33 -130 -36 -73 -3 -83 -1 -154 33
-42 20 -74 30 -72 23z"/>
<path d="M540 444 c0 -8 5 -12 10 -9 6 4 8 11 5 16 -9 14 -15 11 -15 -7z"/>
<path d="M590 449 c0 -5 5 -7 10 -4 6 3 10 8 10 11 0 2 -4 4 -10 4 -5 0 -10
-5 -10 -11z"/>
<path d="M640 440 c0 -5 5 -10 10 -10 6 0 10 5 10 10 0 6 -4 10 -10 10 -5 0
-10 -4 -10 -10z"/>
<path d="M488 413 c7 -3 16 -2 19 1 4 3 -2 6 -13 5 -11 0 -14 -3 -6 -6z"/>
<path d="M534 402 c18 -21 29 -23 27 -5 -1 4 -4 8 -8 8 -5 0 -15 4 -23 9 -9 6
-7 1 4 -12z"/>
<path d="M590 405 c0 -8 2 -15 4 -15 2 0 6 7 10 15 3 8 1 15 -4 15 -6 0 -10
-7 -10 -15z"/>
<path d="M630 394 c-18 -10 -20 -14 -8 -14 9 0 20 5 23 11 4 6 13 8 21 5 8 -3
14 -1 14 4 0 13 -20 11 -50 -6z"/>
<path d="M565 370 c-8 -13 3 -30 18 -29 9 0 9 2 0 6 -18 7 -16 21 5 26 15 4
15 5 0 6 -9 0 -20 -3 -23 -9z"/>
<path d="M510 359 c0 -5 5 -7 10 -4 6 3 10 8 10 11 0 2 -4 4 -10 4 -5 0 -10
-5 -10 -11z"/>
<path d="M640 360 c0 -5 5 -10 10 -10 6 0 10 5 10 10 0 6 -4 10 -10 10 -5 0
-10 -4 -10 -10z"/>
<path d="M525 330 c-3 -5 -12 -7 -20 -3 -8 3 -15 1 -15 -5 0 -6 6 -9 13 -8 18
3 54 25 40 26 -6 0 -14 -4 -18 -10z"/>
<path d="M624 323 c19 -23 56 -31 56 -13 0 5 -7 7 -15 3 -9 -3 -26 3 -38 13
l-22 19 19 -22z"/>
<path d="M560 310 c0 -5 5 -10 10 -10 6 0 10 5 10 10 0 6 -4 10 -10 10 -5 0
-10 -4 -10 -10z"/>
<path d="M510 285 c0 -8 4 -15 10 -15 5 0 7 7 4 15 -4 8 -8 15 -10 15 -2 0 -4
-7 -4 -15z"/>
<path d="M610 280 c0 -5 5 -10 11 -10 5 0 7 5 4 10 -3 6 -8 10 -11 10 -2 0 -4
-4 -4 -10z"/>
<path d="M560 270 c0 -5 5 -10 10 -10 6 0 10 5 10 10 0 6 -4 10 -10 10 -5 0
-10 -4 -10 -10z"/>
<path d="M1144 1289 c0 -56 1 -60 9 -31 6 19 6 44 1 63 -8 28 -9 23 -10 -32z"/>
<path d="M1190 1290 c-1 -62 -19 -120 -47 -153 -18 -21 -18 -21 1 -7 40 31 78
161 57 197 -8 14 -11 6 -11 -37z"/>
<path d="M820 1240 c0 -5 5 -10 11 -10 5 0 7 5 4 10 -3 6 -8 10 -11 10 -2 0
-4 -4 -4 -10z"/>
<path d="M1113 1193 c-12 -13 -19 -23 -14 -23 10 0 46 39 40 43 -2 2 -14 -7
-26 -20z"/>
<path d="M1290 1118 c-14 -35 -54 -333 -47 -352 5 -12 19 -16 56 -16 l50 0 31
55 c17 30 33 55 36 55 2 0 1 -19 -2 -43 -8 -53 12 -77 62 -77 32 0 38 5 77 66
l42 66 3 -40 c4 -57 39 -84 96 -76 57 8 86 24 87 48 0 15 2 16 6 6 3 -8 13
-24 22 -34 15 -18 15 -19 -8 -13 -51 13 -70 -40 -26 -69 30 -20 102 -15 139 9
13 9 32 39 42 66 10 28 20 51 24 51 3 0 10 -10 15 -22 6 -13 23 -29 39 -37 26
-12 34 -11 77 7 41 17 50 18 60 6 16 -20 66 -18 78 4 9 16 10 16 16 0 5 -12
18 -18 40 -18 33 0 34 2 64 80 17 43 31 83 31 88 0 5 -9 21 -21 35 -18 24 -26
26 -72 23 -29 -2 -58 -5 -65 -5 -7 -1 -18 -15 -24 -33 -10 -29 -12 -30 -19
-10 -20 54 -97 65 -152 22 -25 -20 -25 -20 -38 1 -21 31 -88 37 -139 10 l-41
-21 -29 21 c-35 26 -88 21 -134 -12 -16 -12 -25 -15 -21 -8 5 8 28 45 53 83
41 65 42 69 26 87 -22 24 -76 25 -96 2 -8 -10 -27 -38 -42 -63 l-28 -45 7 46
c7 56 -15 82 -67 77 -28 -3 -39 -12 -76 -68 -39 -61 -42 -63 -36 -30 3 19 8
41 10 48 14 48 -87 76 -106 30z m90 -7 c0 -14 -41 -214 -46 -226 -9 -20 18 22
79 125 60 100 65 105 100 108 25 2 37 -1 37 -10 0 -14 -26 -159 -36 -198 -3
-14 7 -4 23 25 97 166 108 180 146 183 20 2 37 1 37 -2 0 -3 -21 -38 -47 -79
-27 -40 -75 -117 -108 -170 -59 -94 -61 -96 -98 -97 l-39 0 7 43 c4 23 12 53
17 67 6 14 11 44 12 68 1 51 -1 48 -77 -85 -51 -91 -53 -93 -89 -93 -21 0 -38
5 -38 10 0 13 40 288 46 318 3 18 11 22 39 22 19 0 35 -4 35 -9z m426 -154 c3
-2 -7 -29 -21 -61 -14 -31 -25 -65 -25 -76 0 -26 -25 -37 -85 -36 l-50 1 1 48
c0 55 24 93 75 120 30 16 91 18 105 4z m191 -1 c7 -7 -67 -197 -85 -218 -34
-40 -147 -48 -140 -10 2 13 13 16 50 13 38 -2 48 1 57 18 10 18 8 20 -26 23
-33 3 -38 6 -41 32 -2 15 -1 39 2 51 8 30 53 84 80 96 21 9 93 6 103 -5z m177
-2 c47 -47 -32 -174 -107 -174 -47 0 -61 14 -60 54 3 90 116 171 167 120z
m143 8 c36 14 63 5 63 -20 0 -11 -13 -50 -28 -88 -22 -52 -34 -70 -50 -72 -12
-2 -22 -1 -22 1 0 3 11 34 25 70 14 39 21 69 15 72 -17 10 -55 -38 -75 -93
-15 -42 -23 -52 -42 -52 l-23 0 25 69 c14 38 25 76 25 85 0 18 42 39 51 25 3
-5 19 -4 36 3z"/>
<path d="M1712 923 c-28 -11 -59 -113 -34 -113 19 0 72 85 72 115 0 6 -20 5
-38 -2z"/>
<path d="M1902 923 c-18 -7 -42 -57 -42 -88 0 -27 1 -28 25 -19 15 6 55 82 55
105 0 10 -17 11 -38 2z m-11 -66 c-10 -9 -11 -8 -5 6 3 10 9 15 12 12 3 -3 0
-11 -7 -18z"/>
<path d="M2091 917 c-6 -8 -18 -31 -26 -52 -18 -41 -9 -63 20 -51 19 7 59 92
50 106 -9 14 -31 12 -44 -3z m19 -25 c0 -5 -7 -17 -15 -28 -14 -18 -14 -17 -4
9 12 27 19 34 19 19z"/>
<path d="M1401 640 c-67 -16 -131 -87 -131 -145 0 -35 36 -77 83 -94 34 -13
34 -26 2 -47 -25 -16 -64 -16 -121 1 -17 5 -27 -1 -44 -25 -21 -30 -21 -32 -5
-50 61 -68 240 -41 294 43 l21 32 0 -26 c0 -15 9 -38 21 -53 26 -33 89 -36
134 -6 29 19 30 19 51 -1 14 -13 32 -19 50 -17 26 3 30 8 35 48 3 25 20 84 38
132 33 85 35 113 8 124 -33 12 -64 -14 -86 -74 l-21 -60 -31 30 c-26 27 -35
30 -72 25 -32 -4 -51 -15 -79 -46 -29 -31 -38 -36 -38 -22 0 10 -9 29 -21 42
l-20 24 15 -26 c28 -46 -8 -125 -72 -158 -53 -27 -111 -34 -165 -20 -51 12
-58 26 -27 54 17 15 24 16 46 7 71 -33 158 9 139 68 -7 23 -61 54 -80 46 -22
-8 -38 21 -31 56 15 83 135 147 220 118 47 -15 53 -27 26 -55 -22 -23 -23 -23
-56 -7 -25 11 -41 13 -61 6 -34 -12 -52 -40 -35 -54 6 -6 10 -7 7 -4 -20 28
65 45 107 23 17 -9 25 -6 49 17 22 21 26 31 18 45 -21 40 -106 64 -168 49z
m401 -230 c-23 -57 -38 -109 -35 -121 5 -18 2 -20 -23 -17 -37 4 -36 18 13
150 26 71 43 103 58 108 32 12 30 -10 -13 -120z m-111 40 c61 -33 -24 -180
-104 -180 -51 0 -61 12 -55 65 10 85 97 148 159 115z"/>
<path d="M1611 407 c-22 -27 -43 -89 -32 -100 23 -23 65 22 77 81 6 27 4 32
-14 32 -11 0 -25 -6 -31 -13z m1 -59 c-7 -7 -12 -8 -12 -2 0 14 12 26 19 19 2
-3 -1 -11 -7 -17z"/>
<path d="M2248 536 c-20 -15 -24 -41 -7 -52 8 -4 2 -12 -14 -21 -23 -12 -30
-11 -52 3 -29 19 -87 14 -114 -10 -15 -14 -19 -13 -34 4 -13 15 -24 19 -45 14
-15 -4 -29 -11 -31 -16 -1 -5 -11 -2 -22 8 -33 30 -67 11 -96 -54 -54 -122
-38 -167 60 -163 72 2 85 8 89 39 l4 27 14 -27 c12 -25 11 -30 -5 -48 -17 -19
-17 -21 0 -40 10 -11 29 -20 42 -20 26 0 63 32 63 55 0 8 5 15 10 15 6 0 19 9
29 19 19 19 20 19 37 0 26 -29 94 -26 132 6 l29 24 22 -23 c29 -31 66 -38 114
-21 33 11 44 11 73 -1 98 -41 197 53 132 124 l-23 24 29 -4 c19 -2 32 3 40 14
16 26 -3 51 -46 62 -42 11 -82 2 -107 -23 -19 -19 -20 -19 -42 5 -30 32 -74
31 -123 -2 -29 -20 -40 -23 -46 -14 -5 8 1 21 16 34 21 19 23 24 11 45 -10 20
-20 25 -67 27 -34 2 -62 -2 -72 -10z m132 -28 c0 -9 -8 -19 -17 -22 -23 -7
-102 -1 -111 9 -15 15 32 33 79 32 38 -2 49 -6 49 -19z m-480 -120 c-17 -44
-25 -77 -20 -82 16 -16 49 24 71 85 16 44 26 58 45 62 13 2 24 1 24 -2 -1 -25
-72 -177 -85 -179 -8 -2 -15 2 -15 8 0 7 -6 8 -19 0 -25 -13 -68 -13 -76 1 -4
5 6 46 21 89 21 59 34 80 49 83 11 2 23 5 26 6 4 0 -6 -32 -21 -71z m279 63
c24 -16 -5 -41 -38 -35 -24 5 -31 1 -50 -29 -34 -56 -24 -100 18 -78 14 8 20
7 25 -4 6 -16 -21 -35 -49 -35 -11 0 -14 -6 -9 -24 4 -18 1 -27 -14 -35 -28
-15 -55 -14 -49 2 2 6 9 12 15 12 5 0 14 3 18 8 4 4 2 7 -4 7 -6 0 -9 6 -6 14
3 8 1 17 -5 21 -16 9 -13 71 4 104 32 63 103 98 144 72z m162 -10 c22 -17 22
-21 10 -62 -7 -24 -28 -58 -46 -76 -27 -27 -41 -33 -74 -33 -57 0 -71 30 -47
93 19 51 42 75 82 87 43 12 50 12 75 -9z m193 0 c14 -15 15 -24 7 -40 -17 -31
-52 -51 -89 -51 -35 0 -53 -23 -33 -43 8 -8 19 -8 40 0 24 9 31 8 35 -3 12
-31 -90 -46 -119 -18 -34 34 16 145 75 167 31 11 68 6 84 -12z m176 9 c24 -15
-5 -35 -45 -31 -26 2 -35 -1 -35 -13 0 -8 9 -17 19 -21 35 -11 45 -32 32 -64
-15 -34 -48 -51 -99 -51 -51 0 -66 11 -49 34 11 15 17 16 39 5 15 -6 34 -9 42
-6 26 10 18 34 -14 47 -49 20 -37 82 20 103 24 9 74 7 90 -3z m-556 -68 c-1
-6 -2 -26 -2 -43 -2 -28 -3 -29 -18 -14 -9 9 -23 14 -30 11 -18 -7 -18 -2 2
35 15 30 50 38 48 11z m419 -37 c20 -28 18 -30 -17 -14 -20 9 -29 9 -41 -1 -9
-8 -15 -8 -15 -2 0 6 9 14 20 17 11 3 20 11 20 16 0 16 14 9 33 -16z"/>
<path d="M2257 402 c-9 -10 -22 -33 -28 -51 -14 -40 -1 -58 29 -42 21 11 56
87 47 102 -10 14 -30 11 -48 -9z m4 -49 c-12 -20 -14 -14 -5 12 4 9 9 14 11
11 3 -2 0 -13 -6 -23z"/>
<path d="M2444 399 c-19 -21 -19 -21 11 -17 19 2 31 10 33 21 5 24 -21 22 -44
-4z"/>
</g>
</svg>
